<mxfile host="app.diagrams.net" modified="2024-02-14T16:34:17.958Z" agent="Mozilla/5.0 (Windows NT 10.0; Win64; x64) AppleWebKit/537.36 (KHTML, like Gecko) Chrome/121.0.0.0 Safari/537.36" etag="9nhDVd0mwSmDW8bMLGJ5" version="23.1.4" type="github">
  <diagram name="Page-1" id="90a13364-a465-7bf4-72fc-28e22215d7a0">
    <mxGraphModel dx="1050" dy="530" grid="1" gridSize="10" guides="1" tooltips="1" connect="1" arrows="1" fold="1" page="1" pageScale="1.5" pageWidth="1169" pageHeight="826" background="none" math="0" shadow="0">
      <root>
        <mxCell id="0" style=";html=1;" />
        <mxCell id="1" style=";html=1;" parent="0" />
        <mxCell id="ZLrNhD5u5SHP2nrK1hEg-11" style="edgeStyle=orthogonalEdgeStyle;rounded=0;orthogonalLoop=1;jettySize=auto;html=1;exitX=1;exitY=0.5;exitDx=0;exitDy=0;entryX=1;entryY=0.5;entryDx=0;entryDy=0;" edge="1" parent="1" source="ZLrNhD5u5SHP2nrK1hEg-1" target="ZLrNhD5u5SHP2nrK1hEg-10">
          <mxGeometry relative="1" as="geometry" />
        </mxCell>
        <mxCell id="ZLrNhD5u5SHP2nrK1hEg-1" value="100MHz&lt;br&gt;VTOCXO" style="shape=parallelogram;perimeter=parallelogramPerimeter;whiteSpace=wrap;html=1;fixedSize=1;" vertex="1" parent="1">
          <mxGeometry x="290" y="30" width="120" height="60" as="geometry" />
        </mxCell>
        <mxCell id="ZLrNhD5u5SHP2nrK1hEg-4" value="Vref" style="edgeStyle=orthogonalEdgeStyle;rounded=0;orthogonalLoop=1;jettySize=auto;html=1;exitX=1;exitY=0.5;exitDx=0;exitDy=0;entryX=0;entryY=0.5;entryDx=0;entryDy=0;" edge="1" parent="1" source="ZLrNhD5u5SHP2nrK1hEg-2" target="ZLrNhD5u5SHP2nrK1hEg-1">
          <mxGeometry y="20" relative="1" as="geometry">
            <mxPoint as="offset" />
          </mxGeometry>
        </mxCell>
        <mxCell id="ZLrNhD5u5SHP2nrK1hEg-2" value="DAC" style="rounded=1;whiteSpace=wrap;html=1;" vertex="1" parent="1">
          <mxGeometry x="150" y="40" width="70" height="40" as="geometry" />
        </mxCell>
        <mxCell id="ZLrNhD5u5SHP2nrK1hEg-8" value="I2C" style="edgeStyle=orthogonalEdgeStyle;rounded=0;orthogonalLoop=1;jettySize=auto;html=1;exitX=0.5;exitY=0;exitDx=0;exitDy=0;entryX=0.5;entryY=1;entryDx=0;entryDy=0;" edge="1" parent="1" source="ZLrNhD5u5SHP2nrK1hEg-5" target="ZLrNhD5u5SHP2nrK1hEg-2">
          <mxGeometry relative="1" as="geometry" />
        </mxCell>
        <mxCell id="ZLrNhD5u5SHP2nrK1hEg-5" value="PIC&lt;br&gt;16F" style="whiteSpace=wrap;html=1;aspect=fixed;" vertex="1" parent="1">
          <mxGeometry x="145" y="120" width="80" height="80" as="geometry" />
        </mxCell>
        <mxCell id="ZLrNhD5u5SHP2nrK1hEg-7" value="1 PPS" style="edgeStyle=orthogonalEdgeStyle;rounded=0;orthogonalLoop=1;jettySize=auto;html=1;" edge="1" parent="1" source="ZLrNhD5u5SHP2nrK1hEg-6" target="ZLrNhD5u5SHP2nrK1hEg-5">
          <mxGeometry x="-0.1429" y="10" relative="1" as="geometry">
            <mxPoint as="offset" />
          </mxGeometry>
        </mxCell>
        <mxCell id="ZLrNhD5u5SHP2nrK1hEg-6" value="" style="ellipse;whiteSpace=wrap;html=1;aspect=fixed;" vertex="1" parent="1">
          <mxGeometry x="60" y="150" width="20" height="20" as="geometry" />
        </mxCell>
        <mxCell id="ZLrNhD5u5SHP2nrK1hEg-17" value="Vtune" style="edgeStyle=orthogonalEdgeStyle;rounded=0;orthogonalLoop=1;jettySize=auto;html=1;exitX=1;exitY=0.5;exitDx=0;exitDy=0;" edge="1" parent="1" source="ZLrNhD5u5SHP2nrK1hEg-9" target="ZLrNhD5u5SHP2nrK1hEg-16">
          <mxGeometry x="-0.1111" y="15" relative="1" as="geometry">
            <mxPoint as="offset" />
          </mxGeometry>
        </mxCell>
        <mxCell id="ZLrNhD5u5SHP2nrK1hEg-9" value="ADF41513&lt;br&gt;PLL" style="whiteSpace=wrap;html=1;aspect=fixed;" vertex="1" parent="1">
          <mxGeometry x="720" y="30" width="90" height="90" as="geometry" />
        </mxCell>
        <mxCell id="ZLrNhD5u5SHP2nrK1hEg-13" value="Fref" style="edgeStyle=orthogonalEdgeStyle;rounded=0;orthogonalLoop=1;jettySize=auto;html=1;exitX=0;exitY=0.75;exitDx=0;exitDy=0;entryX=0;entryY=0.5;entryDx=0;entryDy=0;" edge="1" parent="1" source="ZLrNhD5u5SHP2nrK1hEg-10" target="ZLrNhD5u5SHP2nrK1hEg-9">
          <mxGeometry x="0.6098" y="15" relative="1" as="geometry">
            <mxPoint as="offset" />
          </mxGeometry>
        </mxCell>
        <mxCell id="ZLrNhD5u5SHP2nrK1hEg-10" value="" style="triangle;whiteSpace=wrap;html=1;rotation=-180;" vertex="1" parent="1">
          <mxGeometry x="490" y="20" width="60" height="80" as="geometry" />
        </mxCell>
        <mxCell id="ZLrNhD5u5SHP2nrK1hEg-14" value="" style="pointerEvents=1;verticalLabelPosition=bottom;shadow=0;dashed=0;align=center;html=1;verticalAlign=top;shape=mxgraph.electrical.resistors.resistor_2;rotation=-25;" vertex="1" parent="1">
          <mxGeometry x="510" y="40" width="40" height="10" as="geometry" />
        </mxCell>
        <mxCell id="ZLrNhD5u5SHP2nrK1hEg-15" value="" style="pointerEvents=1;verticalLabelPosition=bottom;shadow=0;dashed=0;align=center;html=1;verticalAlign=top;shape=mxgraph.electrical.resistors.resistor_2;rotation=45;" vertex="1" parent="1">
          <mxGeometry x="510" y="70" width="40" height="10" as="geometry" />
        </mxCell>
        <mxCell id="ZLrNhD5u5SHP2nrK1hEg-20" value="2.54791GHz&lt;br&gt;(2.45-2.8)" style="edgeStyle=orthogonalEdgeStyle;rounded=0;orthogonalLoop=1;jettySize=auto;html=1;" edge="1" parent="1" source="ZLrNhD5u5SHP2nrK1hEg-16" target="ZLrNhD5u5SHP2nrK1hEg-18">
          <mxGeometry x="0.0588" y="40" relative="1" as="geometry">
            <mxPoint as="offset" />
          </mxGeometry>
        </mxCell>
        <mxCell id="ZLrNhD5u5SHP2nrK1hEg-16" value="CrystekVCO&lt;br&gt;Low PN" style="whiteSpace=wrap;html=1;aspect=fixed;" vertex="1" parent="1">
          <mxGeometry x="900" y="35" width="80" height="80" as="geometry" />
        </mxCell>
        <mxCell id="ZLrNhD5u5SHP2nrK1hEg-22" value="" style="edgeStyle=orthogonalEdgeStyle;rounded=0;orthogonalLoop=1;jettySize=auto;html=1;" edge="1" parent="1" source="ZLrNhD5u5SHP2nrK1hEg-18" target="ZLrNhD5u5SHP2nrK1hEg-21">
          <mxGeometry relative="1" as="geometry" />
        </mxCell>
        <mxCell id="ZLrNhD5u5SHP2nrK1hEg-18" value="HMC443" style="whiteSpace=wrap;html=1;aspect=fixed;" vertex="1" parent="1">
          <mxGeometry x="900" y="200" width="80" height="80" as="geometry" />
        </mxCell>
        <mxCell id="ZLrNhD5u5SHP2nrK1hEg-21" value="AMP" style="triangle;whiteSpace=wrap;html=1;rotation=90;" vertex="1" parent="1">
          <mxGeometry x="910" y="310" width="60" height="80" as="geometry" />
        </mxCell>
      </root>
    </mxGraphModel>
  </diagram>
</mxfile>
